<svg xmlns="http://www.w3.org/2000/svg" fill="none" viewBox="0 0 32 32"><rect width="32" height="32" fill="#EEE" rx="8"/><path fill="#111" d="M5.83 20.98a4.5 4.5 0 0 1-.82-2.9v-4.17c-.07-1.03.2-2.06.8-2.92q.81-1 2.76-.99 1.96 0 2.65.87c.56.72.83 1.61.77 2.5v.99h-2.4v-1.07q0-.42-.08-.83a1 1 0 0 0-.27-.53 1 1 0 0 0-.67-.2 1 1 0 0 0-.5.07 1 1 0 0 0-.37.34q-.24.59-.2 1.22v5.3q-.04.65.23 1.23.12.22.35.33.23.1.49.08.25.04.47-.08a1 1 0 0 0 .34-.33q.21-.6.18-1.22v-1.12h2.4v.97a4 4 0 0 1-.7 2.57q-.78.9-2.66.91c-1.25 0-2.23-.33-2.77-1.02m9.37-10.98h2.6l2.2 12h-2.16l-.39-2.65h-1.82l-.44 2.63h-2.19zm2.01 7.84-.7-4.82-.68 4.82zm4.6-6.04h-1.81v-1.8h6v1.8h-1.8v10.2h-2.4z"/></svg>